HIERARCHY
ROOT mixamorig:Hips
{
	OFFSET -0.000008 104.274872 1.554316
	CHANNELS 6 Xposition Yposition Zposition Xrotation Yrotation Zrotation
	JOINT mixamorig:Spine
	{
		OFFSET -0.000005 10.181595 0.131519
		CHANNELS 6 Xposition Yposition Zposition Xrotation Yrotation Zrotation
		JOINT mixamorig:Spine1
		{
			OFFSET -0.000000 9.893959 -1.470707
			CHANNELS 6 Xposition Yposition Zposition Xrotation Yrotation Zrotation
			JOINT mixamorig:Spine2
			{
				OFFSET -0.000000 9.220757 -1.370641
				CHANNELS 6 Xposition Yposition Zposition Xrotation Yrotation Zrotation
				JOINT mixamorig:Neck
				{
					OFFSET 0.000001 16.740417 -2.049036
					CHANNELS 6 Xposition Yposition Zposition Xrotation Yrotation Zrotation
					JOINT mixamorig:Head
					{
						OFFSET 0.000000 9.617874 1.685006
						CHANNELS 6 Xposition Yposition Zposition Xrotation Yrotation Zrotation
						JOINT mixamorig:HeadTop_End
						{
							OFFSET 0.000002 22.037354 7.501101
							CHANNELS 6 Xposition Yposition Zposition Xrotation Yrotation Zrotation
							End Site
							{
								OFFSET 0.000168 2310.654297 -282.823242
							}
						}
					}
				}
				JOINT mixamorig:RightShoulder
				{
					OFFSET -4.569970 11.014908 -2.160885
					CHANNELS 6 Xposition Yposition Zposition Xrotation Yrotation Zrotation
					JOINT mixamorig:RightArm
					{
						OFFSET -10.592851 -0.524811 -2.232101
						CHANNELS 6 Xposition Yposition Zposition Xrotation Yrotation Zrotation
						JOINT mixamorig:RightForeArm
						{
							OFFSET -27.841511 0.000031 -0.000004
							CHANNELS 6 Xposition Yposition Zposition Xrotation Yrotation Zrotation
							JOINT mixamorig:RightHand
							{
								OFFSET -28.328831 -0.000015 0.000015
								CHANNELS 6 Xposition Yposition Zposition Xrotation Yrotation Zrotation
								JOINT mixamorig:RightHandThumb1
								{
									OFFSET -2.464806 -1.573990 2.681852
									CHANNELS 6 Xposition Yposition Zposition Xrotation Yrotation Zrotation
									JOINT mixamorig:RightHandThumb2
									{
										OFFSET -3.215179 -1.872803 1.924282
										CHANNELS 6 Xposition Yposition Zposition Xrotation Yrotation Zrotation
										JOINT mixamorig:RightHandThumb3
										{
											OFFSET -2.654831 -1.527969 1.512609
											CHANNELS 6 Xposition Yposition Zposition Xrotation Yrotation Zrotation
											JOINT mixamorig:RightHandThumb4
											{
												OFFSET -2.018814 -1.152008 1.108052
												CHANNELS 6 Xposition Yposition Zposition Xrotation Yrotation Zrotation
												End Site
												{
													OFFSET -188.809540 -114.533607 132.431396
												}
											}
										}
									}
								}
								JOINT mixamorig:RightHandIndex1
								{
									OFFSET -9.108284 -0.517868 2.259835
									CHANNELS 6 Xposition Yposition Zposition Xrotation Yrotation Zrotation
									JOINT mixamorig:RightHandIndex2
									{
										OFFSET -3.699989 0.000000 0.001215
										CHANNELS 6 Xposition Yposition Zposition Xrotation Yrotation Zrotation
										JOINT mixamorig:RightHandIndex3
										{
											OFFSET -2.850006 0.000031 -0.000522
											CHANNELS 6 Xposition Yposition Zposition Xrotation Yrotation Zrotation
											JOINT mixamorig:RightHandIndex4
											{
												OFFSET -2.772186 -0.000015 -0.000020
												CHANNELS 6 Xposition Yposition Zposition Xrotation Yrotation Zrotation
												End Site
												{
													OFFSET -277.218445 0.000000 -0.050231
												}
											}
										}
									}
								}
								JOINT mixamorig:RightHandMiddle1
								{
									OFFSET -9.532516 -0.000031 -0.000023
									CHANNELS 6 Xposition Yposition Zposition Xrotation Yrotation Zrotation
									JOINT mixamorig:RightHandMiddle2
									{
										OFFSET -3.700005 -0.000015 0.003713
										CHANNELS 6 Xposition Yposition Zposition Xrotation Yrotation Zrotation
										JOINT mixamorig:RightHandMiddle3
										{
											OFFSET -2.949974 0.000015 -0.002054
											CHANNELS 6 Xposition Yposition Zposition Xrotation Yrotation Zrotation
											JOINT mixamorig:RightHandMiddle4
											{
												OFFSET -2.946640 0.000000 -0.000156
												CHANNELS 6 Xposition Yposition Zposition Xrotation Yrotation Zrotation
												End Site
												{
													OFFSET -294.664337 0.000000 -0.113670
												}
											}
										}
									}
								}
								JOINT mixamorig:RightHandRing1
								{
									OFFSET -9.103600 -0.043076 -1.865134
									CHANNELS 6 Xposition Yposition Zposition Xrotation Yrotation Zrotation
									JOINT mixamorig:RightHandRing2
									{
										OFFSET -3.379288 0.000000 -0.001055
										CHANNELS 6 Xposition Yposition Zposition Xrotation Yrotation Zrotation
										JOINT mixamorig:RightHandRing3
										{
											OFFSET -2.889687 -0.000015 0.000379
											CHANNELS 6 Xposition Yposition Zposition Xrotation Yrotation Zrotation
											JOINT mixamorig:RightHandRing4
											{
												OFFSET -2.638809 -0.000015 0.000941
												CHANNELS 6 Xposition Yposition Zposition Xrotation Yrotation Zrotation
												End Site
												{
													OFFSET -263.880371 0.000000 0.516020
												}
											}
										}
									}
								}
								JOINT mixamorig:RightHandPinky1
								{
									OFFSET -8.076683 -0.486710 -3.806280
									CHANNELS 6 Xposition Yposition Zposition Xrotation Yrotation Zrotation
									JOINT mixamorig:RightHandPinky2
									{
										OFFSET -3.600014 -0.000015 -0.003747
										CHANNELS 6 Xposition Yposition Zposition Xrotation Yrotation Zrotation
										JOINT mixamorig:RightHandPinky3
										{
											OFFSET -2.099983 0.000000 -0.005739
											CHANNELS 6 Xposition Yposition Zposition Xrotation Yrotation Zrotation
											JOINT mixamorig:RightHandPinky4
											{
												OFFSET -2.115768 -0.000031 -0.003680
												CHANNELS 6 Xposition Yposition Zposition Xrotation Yrotation Zrotation
												End Site
												{
													OFFSET -211.577087 0.000000 -0.350686
												}
											}
										}
									}
								}
							}
						}
					}
				}
				JOINT mixamorig:LeftShoulder
				{
					OFFSET 4.570447 11.014725 -2.160855
					CHANNELS 6 Xposition Yposition Zposition Xrotation Yrotation Zrotation
					JOINT mixamorig:LeftArm
					{
						OFFSET 10.592371 -0.524597 -2.232119
						CHANNELS 6 Xposition Yposition Zposition Xrotation Yrotation Zrotation
						JOINT mixamorig:LeftForeArm
						{
							OFFSET 27.841532 -0.000031 0.000026
							CHANNELS 6 Xposition Yposition Zposition Xrotation Yrotation Zrotation
							JOINT mixamorig:LeftHand
							{
								OFFSET 28.328846 -0.000061 0.000022
								CHANNELS 6 Xposition Yposition Zposition Xrotation Yrotation Zrotation
								JOINT mixamorig:LeftHandThumb1
								{
									OFFSET 2.466141 -1.576172 2.681732
									CHANNELS 6 Xposition Yposition Zposition Xrotation Yrotation Zrotation
									JOINT mixamorig:LeftHandThumb2
									{
										OFFSET 3.217812 -1.872070 1.916482
										CHANNELS 6 Xposition Yposition Zposition Xrotation Yrotation Zrotation
										JOINT mixamorig:LeftHandThumb3
										{
											OFFSET 2.656029 -1.528778 1.514513
											CHANNELS 6 Xposition Yposition Zposition Xrotation Yrotation Zrotation
											JOINT mixamorig:LeftHandThumb4
											{
												OFFSET 2.020889 -1.154053 1.115139
												CHANNELS 6 Xposition Yposition Zposition Xrotation Yrotation Zrotation
												End Site
												{
													OFFSET 190.885437 -115.081749 130.048782
												}
											}
										}
									}
								}
								JOINT mixamorig:LeftHandIndex1
								{
									OFFSET 9.109314 -0.518021 2.259871
									CHANNELS 6 Xposition Yposition Zposition Xrotation Yrotation Zrotation
									JOINT mixamorig:LeftHandIndex2
									{
										OFFSET 3.699989 0.000000 -0.000322
										CHANNELS 6 Xposition Yposition Zposition Xrotation Yrotation Zrotation
										JOINT mixamorig:LeftHandIndex3
										{
											OFFSET 2.850006 0.000000 0.000352
											CHANNELS 6 Xposition Yposition Zposition Xrotation Yrotation Zrotation
											JOINT mixamorig:LeftHandIndex4
											{
												OFFSET 2.774864 -0.000031 -0.000027
												CHANNELS 6 Xposition Yposition Zposition Xrotation Yrotation Zrotation
												End Site
												{
													OFFSET 277.486267 0.000000 -0.009857
												}
											}
										}
									}
								}
								JOINT mixamorig:LeftHandMiddle1
								{
									OFFSET 9.533394 0.000061 0.000044
									CHANNELS 6 Xposition Yposition Zposition Xrotation Yrotation Zrotation
									JOINT mixamorig:LeftHandMiddle2
									{
										OFFSET 3.699989 -0.000015 -0.000231
										CHANNELS 6 Xposition Yposition Zposition Xrotation Yrotation Zrotation
										JOINT mixamorig:LeftHandMiddle3
										{
											OFFSET 2.949997 -0.000015 -0.000059
											CHANNELS 6 Xposition Yposition Zposition Xrotation Yrotation Zrotation
											JOINT mixamorig:LeftHandMiddle4
											{
												OFFSET 2.952896 0.000031 0.000063
												CHANNELS 6 Xposition Yposition Zposition Xrotation Yrotation Zrotation
												End Site
												{
													OFFSET 295.289337 0.000000 0.022810
												}
											}
										}
									}
								}
								JOINT mixamorig:LeftHandRing1
								{
									OFFSET 9.104523 -0.042999 -1.865074
									CHANNELS 6 Xposition Yposition Zposition Xrotation Yrotation Zrotation
									JOINT mixamorig:LeftHandRing2
									{
										OFFSET 3.150009 -0.000031 0.000043
										CHANNELS 6 Xposition Yposition Zposition Xrotation Yrotation Zrotation
										JOINT mixamorig:LeftHandRing3
										{
											OFFSET 2.949982 -0.000015 0.000040
											CHANNELS 6 Xposition Yposition Zposition Xrotation Yrotation Zrotation
											JOINT mixamorig:LeftHandRing4
											{
												OFFSET 2.644348 0.000000 0.000057
												CHANNELS 6 Xposition Yposition Zposition Xrotation Yrotation Zrotation
												End Site
												{
													OFFSET 264.434631 0.000000 0.012105
												}
											}
										}
									}
								}
								JOINT mixamorig:LeftHandPinky1
								{
									OFFSET 8.077789 -0.486847 -3.806259
									CHANNELS 6 Xposition Yposition Zposition Xrotation Yrotation Zrotation
									JOINT mixamorig:LeftHandPinky2
									{
										OFFSET 3.599953 0.000031 0.014727
										CHANNELS 6 Xposition Yposition Zposition Xrotation Yrotation Zrotation
										JOINT mixamorig:LeftHandPinky3
										{
											OFFSET 2.100021 0.000015 0.007705
											CHANNELS 6 Xposition Yposition Zposition Xrotation Yrotation Zrotation
											JOINT mixamorig:LeftHandPinky4
											{
												OFFSET 2.125504 0.000031 0.007517
												CHANNELS 6 Xposition Yposition Zposition Xrotation Yrotation Zrotation
												End Site
												{
													OFFSET 212.550781 0.000000 0.625752
												}
											}
										}
									}
								}
							}
						}
					}
				}
			}
		}
	}
	JOINT mixamorig:RightUpLeg
	{
		OFFSET -8.207787 -6.751648 -1.599560
		CHANNELS 6 Xposition Yposition Zposition Xrotation Yrotation Zrotation
		JOINT mixamorig:RightLeg
		{
			OFFSET -0.000002 -44.370117 0.345942
			CHANNELS 6 Xposition Yposition Zposition Xrotation Yrotation Zrotation
			JOINT mixamorig:RightFoot
			{
				OFFSET 0.000003 -44.423679 -3.043532
				CHANNELS 6 Xposition Yposition Zposition Xrotation Yrotation Zrotation
				JOINT mixamorig:RightToeBase
				{
					OFFSET -0.000002 -8.728671 10.710558
					CHANNELS 6 Xposition Yposition Zposition Xrotation Yrotation Zrotation
					JOINT mixamorig:RightToe_End
					{
						OFFSET -0.000001 -0.000679 9.278119
						CHANNELS 6 Xposition Yposition Zposition Xrotation Yrotation Zrotation
						End Site
						{
							OFFSET 0.000000 -0.067690 927.812134
						}
					}
				}
			}
		}
	}
	JOINT mixamorig:LeftUpLeg
	{
		OFFSET 8.207793 -6.751686 -1.599556
		CHANNELS 6 Xposition Yposition Zposition Xrotation Yrotation Zrotation
		JOINT mixamorig:LeftLeg
		{
			OFFSET -0.000004 -44.370014 0.346954
			CHANNELS 6 Xposition Yposition Zposition Xrotation Yrotation Zrotation
			JOINT mixamorig:LeftFoot
			{
				OFFSET -0.000001 -44.423672 -3.044401
				CHANNELS 6 Xposition Yposition Zposition Xrotation Yrotation Zrotation
				JOINT mixamorig:LeftToeBase
				{
					OFFSET -0.000002 -8.728669 10.710558
					CHANNELS 6 Xposition Yposition Zposition Xrotation Yrotation Zrotation
					JOINT mixamorig:LeftToe_End
					{
						OFFSET -0.000003 -0.000679 9.278133
						CHANNELS 6 Xposition Yposition Zposition Xrotation Yrotation Zrotation
						End Site
						{
							OFFSET 0.000000 -0.068021 927.813477
						}
					}
				}
			}
		}
	}
}
MOTION
Frames: 3
Frame Time: 0.033333
0.000006 104.270477 1.554256 0.000010 0.000003 -0.000113 -0.000005 10.181587 0.131522 0.000001 -0.000003 0.000084 -0.000000 9.893967 -1.470711 0.000001 0.000000 -0.000000 -0.000000 9.220802 -1.370642 0.000000 -0.000000 -0.000000 0.000001 16.740433 -2.049030 0.000000 -0.000000 -0.000000 0.000000 9.617859 1.685014 0.000000 0.000000 0.000000 0.000002 22.037384 7.501101 0.000000 -0.000000 0.000000 -4.569968 11.014880 -2.160881 0.000008 0.000001 -0.000038 -10.592737 -0.524852 -2.231708 81.547363 78.112133 -69.963800 -27.841452 0.000041 0.000594 231.246655 62.416721 -256.736347 -28.328829 0.000022 0.000022 -0.000321 -0.000044 0.000007 -2.464682 -1.573747 2.682412 130.064724 31.244847 194.364781 -3.215118 -1.872554 1.924828 126.226554 48.417500 199.581078 -2.654906 -1.527806 1.513095 296.643995 110.841136 382.739786 -2.018851 -1.151976 1.108074 -0.000006 -0.000007 0.000006 -9.108437 -0.517767 2.259981 20.520711 40.331809 -7.626765 -3.700124 -0.000027 0.001520 148.019816 126.989254 196.272753 -2.850144 -0.000030 -0.000125 -67.604447 59.406465 41.806505 -2.772166 -0.000002 -0.000019 -0.000000 0.000000 0.000004 -9.532624 0.000044 0.000081 16.208215 30.721600 -4.527483 -3.700123 -0.000043 0.003909 -23.117006 37.355923 7.923533 -2.950078 -0.000046 -0.001601 -97.114949 46.893207 52.321523 -2.946624 0.000017 -0.000155 -0.000000 -0.000001 0.000003 -9.103712 -0.042967 -1.865043 14.615346 26.047434 -3.385320 -3.379148 -0.000092 -0.001064 -14.757916 -21.690406 -2.837641 -2.889687 -0.000149 0.000848 -476.813812 -8.980771 -14.476726 -2.638802 -0.000015 0.000932 -0.000002 0.000001 -0.000000 -8.076724 -0.486599 -3.806245 15.184641 16.388795 -2.165992 -3.599669 -0.000018 -0.003739 1.823854 297.494681 0.920277 -2.099661 -0.000270 -0.005440 -491.517133 -40.578403 -79.264953 -2.115759 -0.000056 -0.003668 -0.000000 -0.000001 -0.000004 4.570446 11.014691 -2.160851 -0.000018 0.000010 -0.000021 10.592520 -0.524561 -2.232369 59.763226 -74.570831 47.258455 27.841719 -0.000072 -0.000074 57.870991 -110.110224 76.698872 28.328833 0.000004 0.000036 0.000020 -0.000089 -0.000000 2.466165 -1.576139 2.681889 -129.115601 49.316148 64.780806 3.217834 -1.871976 1.916554 265.226381 34.989266 37.295480 2.656107 -1.528722 1.514636 77.195884 -201.476264 218.138948 2.020906 -1.154085 1.115152 -0.000000 0.000001 0.000002 9.109215 -0.517776 2.260112 -123.395577 -21.862418 -32.853773 3.699754 0.000057 -0.000275 115.969290 -159.875290 86.987418 2.849898 0.000149 0.000597 307.221718 -129.061137 360.332831 2.774873 -0.000058 -0.000014 0.000001 0.000000 0.000003 9.533360 0.000315 0.000276 -117.521587 -10.086625 -16.020719 3.699783 0.000046 -0.000039 107.482001 -163.618302 118.248237 2.949819 0.000000 0.000050 -28.673448 -4.532890 -52.047459 2.952866 -0.000046 0.000090 -0.000000 0.000000 -0.000000 9.104441 -0.042771 -1.864835 -120.859323 -15.596064 -27.696709 3.149705 0.000049 0.000190 -68.652663 -27.131192 -81.670648 2.949713 -0.000051 0.000113 -385.448994 -15.088830 -67.936251 2.644325 0.000013 0.000065 0.000004 -0.000003 0.000000 8.077695 -0.486709 -3.806005 -95.560582 -0.787663 -23.044425 3.599829 0.000310 0.014970 60.010281 -190.786021 152.003456 2.100115 0.000173 0.007625 -303.360694 -0.248221 33.936580 2.125497 0.000016 0.007518 0.000000 -0.000000 -0.000000 -8.207786 -6.751667 -1.599560 -0.077001 -0.000003 0.000080 -0.000002 -44.370110 0.345938 0.153719 -0.000000 -0.000000 0.000000 -44.423679 -3.043532 -0.076700 0.000000 -0.000002 -0.000006 -8.728667 10.710559 -0.000009 -0.000000 -0.000000 -0.000001 -0.000679 9.278123 0.000000 -0.000000 -0.000000 8.207792 -6.751710 -1.599556 -0.074518 -0.000003 0.000081 -0.000002 -44.370014 0.346960 0.148822 0.000002 0.000000 -0.000001 -44.423664 -3.044403 -0.074314 0.000000 -0.000002 -0.000004 -8.728671 10.710558 0.000007 -0.000000 -0.000000 0.000000 -0.000680 9.278137 -0.000000 0.000000 -0.000001 
0.000006 104.270477 1.554256 0.000010 0.000003 -0.000113 -0.000005 10.181587 0.131522 0.000001 -0.000003 0.000084 -0.000000 9.893967 -1.470711 0.000001 0.000000 -0.000000 -0.000000 9.220802 -1.370642 0.000000 -0.000000 -0.000000 0.000001 16.740433 -2.049030 0.000000 -0.000000 -0.000000 0.000000 9.617859 1.685014 0.000000 0.000000 0.000000 0.000002 22.037384 7.501101 0.000000 -0.000000 0.000000 -4.569968 11.014880 -2.160881 0.000008 0.000001 -0.000038 -10.592728 -0.524835 -2.231701 85.782415 79.171106 -75.057038 -27.841463 0.000061 0.000593 233.309044 59.876286 -262.149518 -28.328829 0.000004 0.000025 -0.000318 -0.000043 0.000007 -2.464609 -1.574205 2.681976 123.365784 -143.682837 162.686855 -3.215014 -1.873057 1.924520 89.881567 209.062023 145.425997 -2.654693 -1.528299 1.512943 249.077875 -24.686624 314.809320 -2.018830 -1.151982 1.108067 -0.000002 -0.000003 0.000000 -9.108293 -0.517829 2.260402 -137.701531 16.410907 40.932641 -3.699687 0.000051 0.001804 180.518717 10.626230 174.642008 -2.850008 0.000390 -0.000138 -229.581837 -3.668849 7.934988 -2.772201 -0.000014 -0.000030 0.000001 -0.000001 -0.000000 -9.532484 0.000015 0.000555 -142.776444 14.123120 40.563203 -3.699991 0.000230 0.004261 -186.313832 -0.237925 5.683461 -2.949893 0.000407 -0.001732 -239.280542 -12.616262 21.995858 -2.946598 -0.000000 -0.000150 -0.000000 0.000000 0.000001 -9.103562 -0.042952 -1.864554 -148.756083 10.327555 35.746075 -3.378888 0.000237 -0.000550 -6.603159 -168.122839 -57.972979 -2.889359 0.000379 0.000620 -598.491392 -37.975507 63.139430 -2.638808 -0.000018 0.000962 -0.000002 -0.000002 -0.000000 -8.076645 -0.486599 -3.805710 -155.887853 8.137108 36.504779 -3.599654 -0.000090 -0.003229 3.023534 193.915983 21.478973 -2.099429 0.000159 -0.005512 -560.526905 -55.833873 -217.998192 -2.115778 -0.000050 -0.003681 0.000000 -0.000000 -0.000005 4.570446 11.014691 -2.160851 -0.000018 0.000010 -0.000021 10.592520 -0.524571 -2.232365 57.784480 -75.505289 46.277158 27.841717 -0.000100 -0.000073 60.637504 -111.108135 80.901904 28.328840 -0.000029 0.000029 0.000018 -0.000090 -0.000000 2.466182 -1.576111 2.681884 -124.689420 45.383049 59.749238 3.217830 -1.871970 1.916554 265.120869 32.730536 36.896030 2.656084 -1.528690 1.514622 75.817320 -200.186930 218.367828 2.020887 -1.154069 1.115143 0.000003 0.000006 0.000004 9.109222 -0.517757 2.260097 -121.656160 -22.699975 -32.276387 3.699731 0.000103 -0.000202 104.472087 -175.564330 97.857404 2.849842 0.000193 0.000601 319.299678 -126.815781 382.791368 2.774880 -0.000046 -0.000018 -0.000001 0.000000 -0.000000 9.533356 0.000328 0.000281 -116.744708 -10.588040 -16.347919 3.699800 0.000111 -0.000012 100.177606 -176.073480 124.990317 2.949828 0.000023 0.000105 -44.576769 6.411951 -51.747269 2.952869 -0.000031 0.000059 -0.000000 0.000002 0.000002 9.104435 -0.042768 -1.864842 -118.810717 -16.709178 -28.319645 3.149723 0.000103 0.000247 -72.253347 -9.729153 -69.073573 2.949736 0.000007 0.000220 -406.499856 -1.677129 -63.327451 2.644323 0.000015 0.000060 -0.000000 0.000001 -0.000002 8.077701 -0.486725 -3.806005 -86.515827 0.495240 -22.906752 3.599840 0.000259 0.015000 73.285218 -188.270667 154.750653 2.100114 0.000154 0.007689 -313.795392 -7.735801 41.475911 2.125504 -0.000015 0.007512 0.000000 -0.000001 0.000000 -8.207786 -6.751667 -1.599560 -0.077001 -0.000003 0.000080 -0.000002 -44.370110 0.345938 0.153719 -0.000000 -0.000000 0.000000 -44.423679 -3.043532 -0.076700 0.000000 -0.000002 -0.000006 -8.728667 10.710559 -0.000009 -0.000000 -0.000000 -0.000001 -0.000679 9.278123 0.000000 -0.000000 -0.000000 8.207792 -6.751710 -1.599556 -0.074518 -0.000003 0.000081 -0.000002 -44.370014 0.346960 0.148822 0.000002 0.000000 -0.000001 -44.423664 -3.044403 -0.074314 0.000000 -0.000002 -0.000004 -8.728671 10.710558 0.000007 -0.000000 -0.000000 0.000000 -0.000680 9.278137 -0.000000 0.000000 -0.000001 
0.000006 104.270477 1.554256 0.000010 0.000003 -0.000113 -0.000005 10.181587 0.131522 0.000001 -0.000003 0.000084 -0.000000 9.893967 -1.470711 0.000001 0.000000 -0.000000 -0.000000 9.220802 -1.370642 0.000000 -0.000000 -0.000000 0.000001 16.740433 -2.049030 0.000000 -0.000000 -0.000000 0.000000 9.617859 1.685014 0.000000 0.000000 0.000000 0.000002 22.037384 7.501101 0.000000 -0.000000 0.000000 -4.569968 11.014880 -2.160881 0.000008 0.000001 -0.000038 -10.592730 -0.524833 -2.231706 86.795489 78.426035 -75.304195 -27.841463 0.000058 0.000597 233.535642 61.690726 -260.373587 -28.328835 -0.000006 0.000018 -0.000322 -0.000044 0.000006 -2.464576 -1.574143 2.681938 137.252173 -138.892662 170.399764 -3.215010 -1.873053 1.924490 97.074057 210.542535 148.840108 -2.654704 -1.528265 1.512931 254.544403 -23.900268 318.365909 -2.018826 -1.152014 1.108062 -0.000003 -0.000001 0.000002 -9.108292 -0.517833 2.260392 -132.684880 17.258797 38.257204 -3.699785 -0.000064 0.001795 175.504634 11.996123 221.201878 -2.850035 0.000400 -0.000124 -230.041591 1.310042 -2.804560 -2.772161 0.000000 -0.000006 -0.000002 0.000002 -0.000001 -9.532465 0.000075 0.000563 -148.799605 11.286265 39.199200 -3.700022 0.000274 0.004192 -207.006696 -1.233703 5.448976 -2.949937 0.000381 -0.001836 -264.639805 -8.927097 9.805288 -2.946621 -0.000008 -0.000155 -0.000000 0.000001 -0.000002 -9.103564 -0.042918 -1.864546 -155.574729 9.109687 40.325925 -3.379109 0.000400 -0.000632 -34.316493 -166.279289 -137.445071 -2.889565 0.000387 0.000511 -631.472244 -21.613533 21.055223 -2.638818 0.000000 0.000932 0.000000 -0.000000 0.000001 -8.076638 -0.486599 -3.805718 -158.625802 4.919830 25.178864 -3.599676 0.000295 -0.003328 -25.856945 201.733353 -100.125553 -2.099738 0.000383 -0.005600 -626.292120 -32.682899 -325.193694 -2.115770 -0.000069 -0.003684 -0.000002 -0.000001 -0.000005 4.570446 11.014691 -2.160851 -0.000018 0.000010 -0.000021 10.592520 -0.524577 -2.232367 59.536744 -75.390187 47.690242 27.841713 -0.000083 -0.000072 60.824050 -110.157769 80.111193 28.328840 -0.000027 0.000032 0.000022 -0.000089 -0.000000 2.466193 -1.576101 2.681906 -119.712780 42.001255 55.217554 3.217833 -1.871980 1.916556 265.000739 30.593664 36.602984 2.656079 -1.528695 1.514633 74.753026 -198.938836 218.472371 2.020891 -1.154073 1.115138 0.000004 0.000004 0.000002 9.109234 -0.517745 2.260115 -119.655174 -23.187941 -31.536681 3.699730 0.000174 -0.000139 88.798087 -179.914969 111.445273 2.849849 0.000204 0.000604 335.494876 -124.344837 406.923847 2.774886 -0.000014 -0.000028 0.000003 0.000001 0.000001 9.533350 0.000298 0.000284 -115.696520 -11.206179 -16.759841 3.699826 0.000161 0.000003 88.628063 -179.984145 133.067603 2.949849 0.000077 0.000134 -62.400608 10.759477 -46.354831 2.952881 0.000000 0.000063 -0.000001 -0.000000 -0.000000 9.104445 -0.042771 -1.864837 -116.202937 -17.722068 -28.388974 3.149757 0.000159 0.000304 -83.067101 -0.668378 -55.186235 2.949765 0.000082 0.000290 -427.772589 4.189084 -51.886611 2.644317 0.000015 0.000057 0.000000 0.000000 0.000000 8.077694 -0.486736 -3.806014 -77.883247 -0.283879 -22.713564 3.599862 0.000204 0.014994 84.794312 -183.427244 157.868485 2.100095 0.000144 0.007738 -327.148521 -17.998566 44.702909 2.125518 0.000014 0.007513 -0.000000 -0.000001 0.000000 -8.207786 -6.751667 -1.599560 -0.077001 -0.000003 0.000080 -0.000002 -44.370110 0.345938 0.153719 -0.000000 -0.000000 0.000000 -44.423679 -3.043532 -0.076700 0.000000 -0.000002 -0.000006 -8.728667 10.710559 -0.000009 -0.000000 -0.000000 -0.000001 -0.000679 9.278123 0.000000 -0.000000 -0.000000 8.207792 -6.751710 -1.599556 -0.074518 -0.000003 0.000081 -0.000002 -44.370014 0.346960 0.148822 0.000002 0.000000 -0.000001 -44.423664 -3.044403 -0.074314 0.000000 -0.000002 -0.000004 -8.728671 10.710558 0.000007 -0.000000 -0.000000 0.000000 -0.000680 9.278137 -0.000000 0.000000 -0.000001 
